Coordinates
version=1
nRows=13
nColumns=34
inDegrees=yes

Units are S.I. units (second, meters, Newtons, ...)
If the header above contains a line with 'inDegrees', this indicates whether rotational values are in degrees (yes) or radians (no).

endheader
time	pelvis_tilt	pelvis_list	pelvis_rotation	pelvis_tx	pelvis_ty	pelvis_tz	hip_flexion_r	hip_adduction_r	hip_rotation_r	knee_angle_r	ankle_angle_r	subtalar_angle_r	mtp_angle_r	hip_flexion_l	hip_adduction_l	hip_rotation_l	knee_angle_l	ankle_angle_l	subtalar_angle_l	mtp_angle_l	lumbar_extension	lumbar_bending	lumbar_rotation	arm_flex_r	arm_add_r	arm_rot_r	elbow_flex_r	pro_sup_r	arm_flex_l	arm_add_l	arm_rot_l	elbow_flex_l	pro_sup_l
      0.00000000	      2.04269204	     -1.53170194	     -0.76489329	      0.05293294	      1.30692813	     -0.03063576	     -7.94690361	      3.27698547	     -0.24649925	      2.26131402	      6.81813795	     -6.97589124	      0.00000000	     -7.67084691	     -2.41741804	      0.45075395	      3.50826653	     10.29617014	     -2.92143394	      0.00000000	     -5.19808629	      3.43153326	     -4.32355944	      9.42622682	     -7.39670263	     34.26703353	     20.54150679	     73.31355462	     -2.47192794	     -6.96042047	      8.04313179	     31.04876718	     69.69730972
      0.01666670	     -1.48938855	     -0.66864992	     -0.24844629	      0.05586636	      1.30243840	     -0.03123480	     -4.14477897	      2.71400965	     -0.68489790	      2.02782969	      9.10032672	     -3.83649646	      0.00000000	     -3.68525828	     -0.99142183	      1.83862495	      3.31259618	      9.65389661	     -1.98220707	      0.00000000	     -0.11751419	      2.46509219	     -3.77979245	      6.93303800	     -6.57406867	     25.88181941	     21.35688979	     73.44150390	     -2.60568040	     -6.75489956	      7.84917469	     31.21471254	     71.35600984
      0.03333330	     -2.70862392	      0.29078349	     -0.37137192	      0.05494824	      1.29408550	     -0.03055745	     -3.11261773	      1.75827658	     -0.20300095	      1.13826420	     10.05814404	     -3.86324139	      0.00000000	     -2.34744639	      0.05894040	      0.59224563	      3.19402588	      9.89455781	     -0.89348954	      0.00000000	      1.65829259	      1.09332736	     -3.40653207	      6.07364157	     -6.31944434	     23.94199488	     23.47210575	     74.33490856	     -2.60757783	     -7.44177853	      8.65414736	     32.90215230	     72.09265642
      0.05000000	     -2.66540811	      0.82947504	      0.01165308	      0.05155364	      1.29295314	     -0.03064544	     -3.32531058	      1.21144385	     -0.31281844	      0.55682182	     10.61387503	     -3.88596230	      0.00000000	     -2.64814032	      0.74769527	      1.38254309	      2.54810766	      9.66133763	     -0.84224664	      0.00000000	      1.54487971	      0.26997632	     -2.58496463	      5.06018122	     -6.22982130	     20.39108269	     26.78709319	     76.70040230	     -1.46237813	     -8.29138233	     11.12988515	     34.35852561	     73.85020817
      0.06666670	     -2.96438993	      1.08530655	      0.16878080	      0.05091401	      1.28787675	     -0.03180033	     -2.93009055	      0.87834850	      0.29550267	      0.73577648	     11.37004928	     -4.53206295	      0.00000000	     -2.38621641	      1.14423057	      1.44221144	      2.34815951	      9.66100689	     -0.96351051	      0.00000000	      1.81344770	      0.00943421	     -2.21107015	      5.17644662	     -6.54838678	     21.08023657	     29.88552056	     77.47579588	     -0.90866260	     -8.79373462	     12.37317430	     37.45759406	     74.35874616
      0.08333330	     -3.17950257	      1.22212523	      1.04343945	      0.04571554	      1.30092016	     -0.03544662	     -2.68070817	      0.70086783	      0.31022356	      0.58634289	     11.22079111	     -5.17597356	      0.00000000	     -1.94562093	      1.40884145	      2.29336462	      2.36977952	      9.35757654	     -1.11601163	      0.00000000	      1.65359770	     -0.13376108	     -2.77851756	      5.43610060	     -6.99459043	     22.37763071	     33.83037084	     78.11874728	      0.73731032	     -9.07861898	     14.32126668	     39.92598133	     74.99320750
      0.10000000	     -3.31900310	      1.26718981	      1.58678638	      0.04589913	      1.29568031	     -0.03401962	     -2.36556111	      0.68323671	      0.57763202	      0.69610198	     11.24227103	     -5.83980871	      0.00000000	     -1.37196984	      1.46768894	      2.68386636	      2.81009477	      9.23214274	     -1.11455624	      0.00000000	      1.51059629	     -0.17835479	     -2.83999331	      5.79513411	     -7.55862824	     24.07156106	     38.13694122	     78.54720002	      2.43629212	     -9.44939452	     16.23967159	     43.30003343	     75.62521190
      0.11666670	     -3.65401773	      1.27675028	      2.15178815	      0.04238163	      1.30729069	     -0.03376419	     -1.76335806	      0.72549319	      0.16957958	      0.82479900	     10.40085632	     -6.53353539	      0.00000000	     -0.57879453	      1.48800299	      3.01718792	      3.17181358	      8.51537900	     -1.04160635	      0.00000000	      1.47848786	     -0.24442672	     -3.23942623	      6.30880447	     -8.12552043	     26.01364347	     42.56145831	     78.76936985	      4.16534978	     -9.78069652	     18.12078178	     46.09871658	     76.22289764
      0.13333330	     -3.90146955	      1.30382270	      2.32600562	      0.04226496	      1.30936982	     -0.03126187	     -1.22513662	      0.79862043	      0.11811413	      1.03865534	      9.94366695	     -6.92846708	      0.00000000	      0.13983527	      1.47108478	      2.99533785	      3.80233032	      8.01607869	     -0.98733292	      0.00000000	      1.45808020	     -0.33335277	     -3.52978537	      6.61900512	     -8.88494190	     28.24988205	     48.60927281	     78.89330274	      5.29190616	    -10.59733395	     19.64877372	     49.62169276	     76.80584092
      0.15000000	     -4.21521990	      1.28006677	      2.43787269	      0.03929343	      1.30913521	     -0.03051136	     -0.55513683	      0.91114660	     -0.06232594	      1.41865319	      9.58551437	     -7.15936994	      0.00000000	      0.95485126	      1.38762198	      2.95578782	      4.48385816	      7.68710897	     -1.08870100	      0.00000000	      1.34426168	     -0.41201250	     -3.84189193	      7.09294208	     -9.77416451	     30.40144029	     55.62267800	     78.89537561	      6.56132585	    -11.48865448	     21.08544502	     53.48073065	     77.42741018
      0.16666670	     -4.34806916	      1.26620265	      2.47032451	      0.03758562	      1.31426262	     -0.02887927	     -0.10180999	      1.01846271	     -0.13450423	      1.66477933	      9.32421984	     -7.24523034	      0.00000000	      1.58786741	      1.29515428	      2.99220312	      5.01581266	      7.37284904	     -1.07203248	      0.00000000	      0.93226157	     -0.41688919	     -4.18261119	      7.79523845	    -10.41254305	     32.14473801	     62.17564348	     78.88616058	      7.65566626	    -12.21410291	     22.31210799	     56.90002081	     78.01329097
      0.18333330	     -4.53216463	      1.28020008	      2.55270751	      0.03374020	      1.32109207	     -0.02978247	      0.44847588	      1.03980020	     -0.20319091	      1.85310554	      8.93690732	     -7.17990806	      0.00000000	      2.30891354	      1.27074038	      3.01742644	      5.49783470	      6.85078185	     -1.16569048	      0.00000000	      0.39561215	     -0.40081498	     -4.50920259	      9.01170548	    -10.88956497	     33.75859470	     68.37031036	     78.94996944	      9.36690199	    -12.68457661	     23.52115673	     60.16004663	     78.60002698
      0.20000000	     -4.55470888	      1.26916760	      2.63376489	      0.03365898	      1.32056811	     -0.02774439	      0.73873878	      1.11981259	     -0.18070054	      1.90566642	      8.73280261	     -7.14973412	      0.00000000	      2.81532856	      1.20326185	      3.08395968	      6.08570655	      6.59162128	     -1.16568408	      0.00000000	     -0.32408147	     -0.34587348	     -4.82937105	     10.09835822	    -11.27580536	     36.10188551	     74.81073037	     79.18904394	     11.14309359	    -13.07882970	     24.91448782	     63.36159232	     79.10346746
